<?xml version="1.0" encoding="UTF-8"?>
<svg id="Capa_2" data-name="Capa 2" xmlns="http://www.w3.org/2000/svg" viewBox="0 0 265.11 265.49">
  <defs>
    <style>
      .cls-1 {
        fill: #fafbfd;
      }
    </style>
  </defs>
  <g id="Capa_1-2" data-name="Capa 1">
    <g>
      <path class="cls-1" d="M99.43.84c27.19-1.07,58.74-1.38,85.7.72,63.9,4.98,75.4,37.33,78.52,95.48,1.27,23.64,1.97,48.27,1.03,72.05-2.63,66.82-24.33,92.84-92.5,95.5-30.53,1.19-98.66,2.96-125.52-7.56C4.85,240.66,1.97,197.88.6,159.08-.51,127.7-1.77,62.62,13.83,36.24,32.31,4.99,66.58,2.13,99.43.84ZM110.43,23.84c-55.94,1.95-82.85,3.92-85.78,67.22-1.15,24.85-1.13,55.17-.06,80.04,2.48,57.2,19.08,68.27,74.51,70.49,28.12,1.13,63.13,1.13,90.92-2.16,48.63-5.76,50.29-37.59,51.66-79.34.59-17.94.61-38.14,0-56.08-1.41-41.31-3.59-72.22-51.56-78.44-24.4-3.17-54.93-2.58-79.69-1.72Z"/>
      <path class="cls-1" d="M84.99,83.89c14.28-14.42,35.35-19.7,55.2-18.4,81.69,5.36,78.51,141.33-13.09,135.09-57.53-3.92-80.45-78-42.11-116.69ZM123.4,89.8c-45.68,6.22-46.2,84.05,6.7,86.78,32.17,1.66,51.43-25.96,44.25-56.24-5.82-24.53-27.3-33.75-50.95-30.53Z"/>
      <path class="cls-1" d="M197.37,47.77c12.86-2.63,21.92,5.12,20.18,18.19-1.76,13.23-19.83,16.64-27.34,6.52-5.48-7.37-2.95-22.64,7.17-24.71Z"/>
    </g>
  </g>
</svg>