<?xml version="1.0" encoding="UTF-8"?>
<svg id="Capa_2" data-name="Capa 2" xmlns="http://www.w3.org/2000/svg" viewBox="0 0 275 255.22">
  <defs>
    <style>
      .cls-1 {
        fill: #fafbfd;
      }
    </style>
  </defs>
  <g id="Capa_1-2" data-name="Capa 1">
    <path class="cls-1" d="M4,253.22l97.9-113.64L0,1.23c7.9-2.72,16.73-.1,24.46.03,20.9.35,42.16-1.13,62.84.9,13.92,17.92,26.49,36.94,40.3,54.95,2.69,3.51,17.22,23.12,19.9,23.14l2.52-1.53L218.66.41c.93-.1,1.58.81,1.84.81h36c.27,0,.62-.72,1.15-.87,3.63-1.02-1.98,5.48-2.68,6.34-27.19,33.51-57.36,64.84-84.97,98.03l-1.8,3.82,106.74,143.24.06,3.44c-28.22-1.76-56.65-.29-85-1.51-20.47-25.6-39.01-52.91-59.61-78.39-1.38-1.7-6.08-8.37-7.79-8.06l-76.11,85.95H4ZM225,228.22c-1.79-4.66-5.61-8.91-8.6-12.9-48.02-63.9-96.3-127.64-144.9-191.1h-23.5l.96,3.54,153.54,200.46h22.5Z"/>
  </g>
</svg>