<?xml version="1.0" encoding="UTF-8"?>
<svg id="Capa_2" data-name="Capa 2" xmlns="http://www.w3.org/2000/svg" viewBox="0 0 368.14 258.92">
  <defs>
    <style>
      .cls-1 {
        fill: #fcfcfd;
      }
    </style>
  </defs>
  <g id="Capa_1-2" data-name="Capa 1">
    <path class="cls-1" d="M124.36.8c49.06-1.41,98.94-1.04,147.72,1.7,53.08,2.97,81.73-1.36,91.32,59.68,6.64,42.23,6.7,105.6-2.3,147.37-8.42,39.07-30.28,42.44-66.04,45.96-41.35,4.07-83.52,3.68-124.95,2.97-37.04-.63-77.28-.52-113.92-5.08-43.96-5.47-49.35-29.94-53.61-69.39-3.28-30.36-3.21-66.47-1-96.98,1.43-19.72,3.92-55.01,19.51-68.49C40.51,1.74,98.42,1.55,124.36.8ZM148.56,75.51v108l94.01-53.51-94.01-54.49Z"/>
  </g>
</svg>