<?xml version="1.0" encoding="UTF-8"?>
<svg id="Capa_2" data-name="Capa 2" xmlns="http://www.w3.org/2000/svg" viewBox="0 0 272.06 271.98">
  <defs>
    <style>
      .cls-1 {
        fill: #fcfcfd;
      }
    </style>
  </defs>
  <g id="Capa_1-2" data-name="Capa 1">
    <path class="cls-1" d="M157.93,271.98v-95h32l5-40h-37v-33.5c0-3.15,9.98-13.5,13.5-13.5h25.5v-35c-22.54-2.15-48.1-6.41-66.52,9.98-20.03,17.81-16.01,47.9-15.48,72.02h-35v40h33.5c.11,0,1.5,1.39,1.5,1.5v93.5c-23.57-3.2-47.21-13.85-65.47-29.03C-20.21,185.02-15.48,76.02,58.61,24.16,116.06-16.05,196.13-4.92,240.44,48.96c67.27,81.8,21.34,206.11-82.51,223.01Z"/>
  </g>
</svg>