<svg width="159" height="119" viewBox="0 0 159 119" fill="none" xmlns="http://www.w3.org/2000/svg">
<g clip-path="url(#clip0_2496_345)">
<path d="M79.4941 119C123.121 119 158.488 83.8024 158.488 40.3855C114.862 40.3855 79.4941 75.583 79.4941 119C79.4941 75.583 44.1266 40.3855 0.5 40.3855C0.5 83.8024 35.8675 119 79.4941 119Z" fill="#FFA233"/>
<path d="M73.8171 2.35468L54.6817 21.3981C51.5432 24.5215 51.5432 29.5854 54.6817 32.7088L73.8171 51.7523C76.9556 54.8756 82.044 54.8756 85.1824 51.7523L104.318 32.7088C107.456 29.5854 107.456 24.5215 104.318 21.3981L85.1824 2.35468C82.044 -0.768671 76.9556 -0.768676 73.8171 2.35468Z" fill="#FFA233"/>
</g>
<defs>
<clipPath id="clip0_2496_345">
<rect width="158" height="119" fill="white" transform="translate(0.5)"/>
</clipPath>
</defs>
</svg>
