<svg width="158" height="108" viewBox="0 0 158 108" fill="none" xmlns="http://www.w3.org/2000/svg">
<g clip-path="url(#clip0_2496_340)">
<path d="M78.9941 108C122.621 108 157.988 72.5788 157.988 28.886C114.362 28.886 78.9941 64.3072 78.9941 108C78.9941 64.3072 43.6266 28.886 0 28.886C0 72.5788 35.3675 108 78.9941 108Z" fill="#26AA26"/>
<path d="M52.8582 21.072L61.5742 29.8012L79.0061 47.2595L96.438 29.8012L104.861 21.3653C109.664 16.5549 110.027 8.68221 105.306 3.78965C100.503 -1.19677 92.5837 -1.25543 87.7103 3.6254L78.9943 12.3546L70.2784 3.6254C65.4635 -1.19677 57.6614 -1.19677 52.8465 3.6254C48.0316 8.44756 48.0316 16.2616 52.8465 21.0837L52.8582 21.072Z" fill="#26AA26"/>
</g>
<defs>
<clipPath id="clip0_2496_340">
<rect width="158" height="108" fill="white"/>
</clipPath>
</defs>
</svg>
