<svg width="159" height="117" viewBox="0 0 159 117" fill="none" xmlns="http://www.w3.org/2000/svg">
<g clip-path="url(#clip0_2496_350)">
<path d="M79.4941 117C123.121 117 158.488 81.7235 158.488 38.2092C114.862 38.2092 79.4941 73.4857 79.4941 117C79.4941 73.4857 44.1266 38.2092 0.5 38.2092C0.5 81.7235 35.8675 117 79.4941 117Z" fill="#7031BA"/>
<path d="M70.7901 38.8754L79.5061 30.1819L88.222 38.8754C93.0369 43.6778 100.839 43.6778 105.654 38.8754C110.469 34.0729 110.469 26.2908 105.654 21.4884L96.938 12.7949L87.3668 3.24839C83.0323 -1.07499 75.9916 -1.07499 71.657 3.24839L62.0859 12.7949L53.3699 21.4884C48.5551 26.2908 48.5551 34.0729 53.3699 38.8754C58.1848 43.6778 65.987 43.6778 70.8018 38.8754H70.7901Z" fill="#7031BA"/>
</g>
<defs>
<clipPath id="clip0_2496_350">
<rect width="158" height="117" fill="white" transform="translate(0.5)"/>
</clipPath>
</defs>
</svg>
