<svg width="271" height="107" viewBox="0 0 271 107" fill="none" xmlns="http://www.w3.org/2000/svg">
<g clip-path="url(#clip0_2181_1092)">
<path d="M142.941 65.6409C141.709 64.6575 140.271 63.838 138.627 63.1824L132.023 60.497C130.729 59.9675 129.728 59.3687 129.034 58.7131C128.34 58.0575 127.99 57.2443 127.99 56.2672C127.99 55.1325 128.478 54.1365 129.441 53.2855C130.41 52.4345 131.817 52.0059 133.662 52.0059C135.087 52.0059 136.682 52.258 138.458 52.7623C140.227 53.2666 141.828 53.8592 143.254 54.5337C143.948 53.9285 144.517 53.1595 144.967 52.2202C145.411 51.2809 145.668 50.3228 145.724 49.3457C144.298 48.6397 142.522 47.9841 140.396 47.3915C138.27 46.799 136 46.5027 133.587 46.5027C131.173 46.5027 128.953 46.9566 127.027 47.8706C125.101 48.7846 123.588 50.0391 122.493 51.6339C121.399 53.2288 120.849 55.0569 120.849 57.1119C120.849 59.4884 121.549 61.4237 122.956 62.924C124.363 64.4243 126.208 65.6409 128.49 66.5802L135.125 69.2656C136.694 69.9022 137.82 70.6524 138.495 71.516C139.171 72.3796 139.508 73.3 139.508 74.296C139.508 75.5189 139.002 76.559 137.989 77.4226C136.976 78.2862 135.481 78.7149 133.511 78.7149C131.542 78.7149 129.691 78.3619 127.746 77.6622C125.801 76.9624 124.032 76.1304 122.443 75.1722C121.768 75.7395 121.149 76.496 120.592 77.4478C120.036 78.3997 119.711 79.3579 119.617 80.335C121.537 81.5768 123.688 82.5413 126.083 83.2347C128.478 83.9281 130.804 84.2748 133.068 84.2748C136.157 84.2748 138.72 83.7957 140.765 82.8376C142.81 81.8794 144.336 80.5745 145.342 78.9292C146.349 77.2776 146.85 75.418 146.85 73.3441C146.85 71.7682 146.506 70.3372 145.824 69.0512C145.136 67.7653 144.179 66.6306 142.948 65.6472L142.941 65.6409Z" fill="white"/>
<path d="M160.782 77.9964C160.6 78.009 160.406 78.0153 160.219 78.0279C160.219 77.4227 160.231 76.8869 160.244 76.4141C160.263 75.9414 160.269 75.4371 160.269 74.8823V67.986C160.875 67.9923 161.482 67.9986 162.063 68.0049C162.783 68.0112 163.364 68.0175 163.802 68.0175H173.338C173.463 67.5763 173.563 67.0972 173.626 66.5803C173.688 66.0634 173.719 65.6158 173.719 65.225C173.719 64.8341 173.688 64.4055 173.626 63.8823C173.563 63.3591 173.463 62.8863 173.338 62.4576H163.802C163.364 62.4576 162.783 62.4576 162.063 62.4702C161.482 62.4765 160.875 62.4828 160.269 62.4891V56.551C160.269 55.8261 160.256 55.202 160.244 54.6914C160.225 54.1997 160.219 53.6008 160.219 52.9011C160.844 52.9074 161.469 52.9137 162.07 52.9263C162.789 52.9326 163.37 52.9389 163.808 52.9389H176.083C176.283 52.422 176.427 51.8862 176.521 51.3189C176.615 50.7515 176.658 50.2788 176.658 49.9068C176.658 49.5349 176.646 49.0936 176.621 48.6461C176.596 48.1922 176.527 47.7194 176.415 47.2214H153.753L153.372 47.5681V79.566C153.372 80.8268 153.728 81.8165 154.441 82.5477C155.154 83.2726 156.129 83.6382 157.374 83.6382H172.994C174.82 83.6382 176.052 83.1781 176.677 82.2577C177.309 81.3374 177.621 79.8938 177.621 77.9207H164.033C162.808 77.9207 161.726 77.946 160.788 78.0027L160.782 77.9964Z" fill="white"/>
<path d="M207.893 47.4357C207.418 47.2592 206.88 47.1331 206.28 47.0638C205.679 46.9945 205.073 46.9566 204.472 46.9566C203.997 46.9566 203.516 46.9756 203.034 47.0071C202.553 47.0386 202.065 47.1142 201.571 47.2214L197.106 58.1269C196.85 58.7636 196.568 59.4948 196.256 60.3206C195.943 61.1464 195.643 61.9974 195.337 62.8736C195.036 63.7499 194.774 64.582 194.555 65.3636H194.28C193.936 64.1407 193.554 62.9115 193.142 61.6822C192.729 60.4467 192.316 59.3309 191.897 58.316L188.252 49.6483C187.852 48.6524 187.376 47.94 186.826 47.4925C186.276 47.0512 185.513 46.8306 184.525 46.8306C183.812 46.8306 183.087 46.9314 182.349 47.1394C181.611 47.3412 180.892 47.6374 180.198 48.0283L190.665 71.9384V83.5626C191.216 83.6697 191.829 83.7328 192.504 83.7643C193.179 83.7895 193.748 83.8021 194.205 83.8021C194.718 83.8021 195.287 83.7895 195.918 83.7643C196.55 83.7391 197.138 83.6697 197.688 83.5626V72.1717L208.181 47.8392L207.906 47.442L207.893 47.4357Z" fill="white"/>
<path d="M239.515 47.4104C239.059 47.2528 238.527 47.1394 237.927 47.0763C237.327 47.0133 236.783 46.9818 236.307 46.9818C235.795 46.9818 235.288 46.9944 234.775 47.0196C234.263 47.0448 233.762 47.1142 233.268 47.2213L225.158 77.6748C225.014 77.6748 224.902 77.637 224.827 77.5676C224.752 77.4983 224.689 77.3344 224.633 77.0885C224.433 76.1114 224.201 75.0776 223.945 73.9871C223.689 72.8965 223.426 71.8123 223.163 70.7406C222.901 69.669 222.625 68.6604 222.357 67.7211L217.26 50.14C216.929 48.9548 216.472 48.1038 215.878 47.5869C215.284 47.07 214.484 46.8179 213.483 46.8179C212.714 46.8179 211.976 46.9187 211.263 47.1078C210.551 47.3033 209.875 47.5365 209.237 47.8013L218.911 80.6501C219.274 81.892 219.83 82.7304 220.581 83.1653C221.331 83.6003 222.369 83.8146 223.707 83.8146C224.601 83.8146 225.527 83.7957 226.49 83.7642C227.447 83.7264 228.347 83.6633 229.191 83.5751L239.797 47.8013L239.522 47.4041L239.515 47.4104Z" fill="white"/>
<path d="M258.919 47.2528C258.387 47.1645 257.731 47.0952 256.949 47.051C256.161 47.0069 255.486 46.9817 254.923 46.9817C254.36 46.9817 253.679 47.0069 252.897 47.051C252.109 47.0952 251.434 47.1519 250.871 47.2212L238.621 83.077L238.84 83.4237C239.278 83.5624 239.809 83.6696 240.441 83.7452C241.072 83.8209 241.666 83.8524 242.235 83.8524C242.804 83.8524 243.311 83.8398 243.824 83.8146C244.336 83.7893 244.799 83.72 245.218 83.6128L247.901 75.2162C248.038 75.2162 248.188 75.2162 248.357 75.2225C248.801 75.2288 249.251 75.2414 249.702 75.2477C250.152 75.254 250.483 75.2604 250.702 75.2604H258.319C258.537 75.2604 258.869 75.2604 259.319 75.2477C259.769 75.2414 260.22 75.2288 260.676 75.2225C260.864 75.2225 261.026 75.2225 261.176 75.2162L262.783 80.3475C263.221 81.7847 263.753 82.7429 264.372 83.2346C264.991 83.72 265.854 83.9658 266.948 83.9658C267.661 83.9658 268.392 83.8965 269.143 83.7515C269.893 83.6128 270.512 83.4048 271.006 83.14L258.925 47.2591L258.919 47.2528ZM259.232 69.7635C258.819 69.7572 258.412 69.7446 258 69.7383C257.587 69.732 257.274 69.7257 257.055 69.7257H252.178C251.978 69.7257 251.678 69.7256 251.271 69.7383C250.871 69.7446 250.465 69.7572 250.052 69.7635C249.896 69.7635 249.764 69.7635 249.633 69.7698L252.009 62.3313C252.353 61.1588 252.766 59.7531 253.241 58.1015C253.716 56.4499 254.091 54.9812 254.367 53.6889H254.667C255.067 55.2333 255.536 56.9227 256.08 58.7697C256.618 60.6167 257.124 62.2998 257.599 63.8253L259.463 69.7761C259.388 69.7761 259.313 69.7761 259.225 69.7761L259.232 69.7635Z" fill="white"/>
<path d="M126.352 31.0017H134.687V27.232H126.352V22.2458H134.843V18.4131H121.968V39.7009H126.352V31.0017Z" fill="white"/>
<path d="M147.906 32.5526C147.906 33.9142 147.569 34.9039 146.887 35.5343C146.205 36.1646 145.418 36.4798 144.523 36.4798C143.479 36.4798 142.672 36.1646 142.11 35.5343C141.547 34.9039 141.265 33.9142 141.265 32.5526V23.8849H137.038V33.5549C137.038 34.8724 137.307 36.026 137.851 37.0093C138.395 37.9927 139.133 38.7492 140.077 39.2724C141.015 39.8019 142.072 40.0604 143.241 40.0604C144.517 40.0604 145.536 39.8334 146.293 39.3733C147.056 38.9194 147.637 38.2323 148.031 37.3182V39.6884H152.133V23.8723H147.906V32.54V32.5526Z" fill="white"/>
<path d="M158.874 31.0332C158.874 29.6526 159.212 28.6567 159.894 28.0389C160.569 27.4211 161.363 27.1122 162.257 27.1122C163.302 27.1122 164.146 27.4211 164.796 28.0389C165.446 28.6567 165.765 29.6589 165.765 31.0332V39.7008H169.993V30.0309C169.993 28.6945 169.717 27.5346 169.18 26.5638C168.636 25.593 167.898 24.8429 166.953 24.3134C166.015 23.7838 164.959 23.5254 163.789 23.5254C161.326 23.5254 159.662 24.4205 158.812 26.2045V23.891H154.647V39.7071H158.874V31.0395V31.0332Z" fill="white"/>
<path d="M185.031 37.1163V39.7009H189.133V17.499H184.906V26.318C184.469 25.4859 183.85 24.8177 183.055 24.3134C182.261 23.8091 181.167 23.5506 179.766 23.5506C178.641 23.5506 177.59 23.7713 176.615 24.2062C175.645 24.6412 174.795 25.24 174.063 26.0028C173.332 26.7655 172.756 27.6481 172.337 28.6504C171.918 29.6527 171.712 30.7243 171.712 31.859C171.712 33.3782 172.075 34.765 172.794 36.0069C173.513 37.255 174.489 38.2447 175.708 38.9885C176.927 39.7324 178.284 40.098 179.766 40.098C181.248 40.098 182.361 39.8269 183.168 39.2785C183.975 38.7301 184.594 38.0115 185.031 37.1226V37.1163ZM180.46 36.3851C179.56 36.3851 178.772 36.1708 178.097 35.7484C177.415 35.3197 176.89 34.7587 176.515 34.059C176.139 33.3593 175.952 32.6154 175.952 31.8212C175.952 30.9891 176.139 30.2326 176.515 29.5392C176.89 28.8521 177.421 28.2974 178.097 27.8813C178.772 27.4653 179.566 27.2572 180.46 27.2572C181.355 27.2572 182.211 27.4716 182.887 27.8939C183.562 28.3163 184.093 28.8773 184.469 29.5644C184.844 30.2515 185.031 31.0143 185.031 31.8464C185.031 32.6785 184.844 33.4097 184.469 34.0968C184.093 34.7839 183.562 35.3387 182.887 35.7547C182.205 36.1708 181.398 36.3788 180.46 36.3788V36.3851Z" fill="white"/>
<path d="M204.241 26.3812C203.803 25.5302 203.184 24.8431 202.39 24.3261C201.596 23.8092 200.489 23.5508 199.07 23.5508C197.944 23.5508 196.894 23.7714 195.918 24.2064C194.949 24.6413 194.099 25.2402 193.367 26.0029C192.635 26.7657 192.06 27.6482 191.641 28.6505C191.222 29.6528 191.016 30.7245 191.016 31.8591C191.016 33.3783 191.378 34.7652 192.097 36.007C192.817 37.2552 193.792 38.2448 195.011 38.9887C196.231 39.7325 197.588 40.0981 199.07 40.0981C200.552 40.0981 201.665 39.8271 202.472 39.2787C203.278 38.7302 203.897 38.0116 204.335 37.1228V39.7073H208.437V23.8912H204.241V26.3875V26.3812ZM203.766 34.1033C203.391 34.7904 202.859 35.3451 202.184 35.7612C201.502 36.1772 200.696 36.3852 199.758 36.3852C198.82 36.3852 198.069 36.1709 197.394 35.7486C196.712 35.3199 196.187 34.7589 195.812 34.0591C195.437 33.3594 195.249 32.6156 195.249 31.8213C195.249 30.9892 195.437 30.2328 195.812 29.5394C196.187 28.8522 196.719 28.2975 197.394 27.8815C198.069 27.4654 198.863 27.2574 199.758 27.2574C200.652 27.2574 201.509 27.4717 202.184 27.8941C202.859 28.3164 203.391 28.8775 203.766 29.5646C204.141 30.2517 204.329 31.0144 204.329 31.8465C204.329 32.6786 204.141 33.4099 203.766 34.097V34.1033Z" fill="white"/>
<path d="M212.758 37.6775C213.533 38.4403 214.421 39.0328 215.441 39.4552C216.454 39.8775 217.542 40.0919 218.711 40.0919C220.318 40.0919 221.694 39.8208 222.832 39.285C223.97 38.7492 224.927 38.0053 225.696 37.0471L222.625 34.4626C222.206 35.011 221.719 35.4586 221.15 35.8179C220.587 36.1709 219.899 36.3474 219.08 36.3474C218.179 36.3474 217.392 36.1394 216.716 35.7234C216.035 35.3073 215.503 34.7526 215.122 34.0529C214.734 33.3531 214.54 32.5967 214.54 31.7898C214.54 30.9829 214.721 30.2013 215.09 29.5079C215.453 28.8207 215.972 28.266 216.641 27.85C217.31 27.4339 218.092 27.2259 218.992 27.2259C219.724 27.2259 220.387 27.3898 220.981 27.7113C221.575 28.0328 222.063 28.474 222.438 29.0162L225.696 26.4316C225.008 25.4987 224.076 24.7674 222.907 24.2442C221.738 23.7147 220.412 23.4625 218.93 23.4815C217.279 23.4815 215.803 23.8597 214.496 24.6098C213.189 25.36 212.17 26.356 211.426 27.6041C210.682 28.8523 210.313 30.2454 210.313 31.7835C210.313 32.9371 210.526 34.0213 210.957 35.0236C211.389 36.0259 211.983 36.9085 212.758 37.6712V37.6775Z" fill="white"/>
<path d="M231.586 23.8848H227.359V39.7009H231.586V23.8848Z" fill="white"/>
<path d="M229.46 22.5799C230.192 22.5799 230.798 22.3466 231.274 21.8801C231.755 21.4137 231.993 20.8337 231.993 20.1466C231.993 19.4973 231.755 18.9363 231.274 18.4572C230.792 17.9781 230.186 17.7449 229.46 17.7449C228.735 17.7449 228.147 17.9844 227.659 18.4572C227.165 18.9363 226.921 19.4973 226.921 20.1466C226.921 20.7959 227.165 21.3884 227.659 21.8675C228.147 22.3466 228.747 22.5799 229.46 22.5799Z" fill="white"/>
<path d="M237.664 38.9698C238.978 39.7199 240.472 40.0982 242.142 40.0982C243.811 40.0982 245.331 39.7199 246.638 38.9698C247.945 38.2197 248.964 37.2237 249.708 35.9755C250.452 34.7274 250.821 33.3468 250.821 31.8276C250.821 30.3084 250.452 28.9216 249.708 27.6609C248.964 26.4064 247.945 25.4041 246.638 24.6477C245.331 23.8975 243.836 23.5193 242.142 23.5193C240.447 23.5193 238.978 23.8975 237.664 24.6477C236.345 25.3978 235.319 26.4001 234.575 27.6609C233.831 28.9216 233.462 30.3084 233.462 31.8276C233.462 33.3468 233.831 34.7337 234.575 35.9755C235.319 37.2237 236.345 38.2197 237.664 38.9698ZM238.246 29.5457C238.609 28.8586 239.128 28.3038 239.797 27.8878C240.466 27.4717 241.247 27.2637 242.148 27.2637C243.048 27.2637 243.83 27.4717 244.499 27.8878C245.168 28.3038 245.681 28.8586 246.05 29.5457C246.413 30.2328 246.6 30.9955 246.6 31.8276C246.6 32.6597 246.419 33.391 246.05 34.0781C245.681 34.7652 245.168 35.3199 244.499 35.736C243.83 36.152 243.048 36.36 242.148 36.36C241.247 36.36 240.466 36.152 239.797 35.736C239.128 35.3199 238.609 34.7652 238.246 34.0781C237.883 33.391 237.696 32.6408 237.696 31.8276C237.696 31.0145 237.877 30.2391 238.246 29.5457Z" fill="white"/>
<path d="M246.312 17.1965H241.992L240.61 22.4854H243.555L246.312 17.1965Z" fill="white"/>
<path d="M256.937 31.0332C256.937 29.6526 257.274 28.6567 257.956 28.0389C258.631 27.4211 259.425 27.1122 260.32 27.1122C261.364 27.1122 262.208 27.4211 262.858 28.0389C263.509 28.6567 263.828 29.6589 263.828 31.0332V39.7008H268.055V30.0309C268.055 28.6945 267.78 27.5346 267.242 26.5638C266.698 25.593 265.96 24.8429 265.016 24.3134C264.078 23.7838 263.021 23.5254 261.852 23.5254C259.388 23.5254 257.725 24.4205 256.874 26.2045V23.891H252.709V39.7071H256.937V31.0395V31.0332Z" fill="white"/>
<path d="M40.7269 41.0564C51.9701 29.7222 51.9701 11.3405 40.7269 0C29.4837 11.3342 29.4837 29.7159 40.7269 41.0564C29.4837 29.7222 11.2495 29.7222 0 41.0564C11.2432 52.3905 29.4775 52.3905 40.7269 41.0564Z" fill="white"/>
<path d="M11.6121 25.2969H16.1019H25.0877V16.2384V11.8573C25.0877 9.361 23.1555 7.22403 20.6792 7.1799C18.1592 7.13577 16.1019 9.17819 16.1019 11.706V16.2321H11.6121C9.12963 16.2321 7.12236 18.2619 7.12236 20.7582C7.12236 23.2608 9.13588 25.2843 11.6121 25.2843V25.2969Z" fill="white"/>
<path d="M65.4144 41.0564C76.6576 52.3905 94.8919 52.3905 106.141 41.0564C94.8982 29.7222 76.6639 29.7222 65.4144 41.0564C76.6576 29.7222 76.6576 11.3405 65.4144 0C54.1712 11.3342 54.1712 29.7159 65.4144 41.0564Z" fill="white"/>
<path d="M83.3548 18.4384H87.8446V22.9645C87.8446 25.4671 89.8581 27.4906 92.3344 27.4906C94.8169 27.4906 96.8241 25.4608 96.8241 22.9645V18.4384V13.4648C96.8241 11.208 95.0107 9.38623 92.7783 9.38623H87.8446H83.3548C80.8723 9.38623 78.865 11.416 78.865 13.9123C78.865 16.4149 80.8785 18.4384 83.3548 18.4384Z" fill="white"/>
<path d="M40.7269 65.9437C29.4837 54.6096 11.2495 54.6096 0 65.9437C11.2432 77.2779 29.4775 77.2779 40.7269 65.9437C29.4837 77.2779 29.4837 95.6597 40.7269 107C51.9701 95.666 51.9701 77.2842 40.7269 65.9437Z" fill="white"/>
<path d="M21.8486 82.0247H11.9748C10.3586 82.0247 9.04834 83.3455 9.04834 84.9748V94.9285C9.04834 96.5578 10.3586 97.8786 11.9748 97.8786H21.8486C23.4648 97.8786 24.7751 96.5578 24.7751 94.9285V84.9748C24.7751 83.3455 23.4648 82.0247 21.8486 82.0247Z" fill="white"/>
<path d="M63.626 54.3636C64.1388 47.7888 58.7361 42.336 52.214 42.8592C47.0801 43.269 42.9218 47.461 42.5216 52.6301C42.0088 59.2049 47.4116 64.6576 53.9336 64.1344C59.0675 63.7247 63.2258 59.5327 63.626 54.3636Z" fill="white"/>
<path d="M65.4144 65.9437C54.1712 77.2779 54.1712 95.6597 65.4144 107C76.6576 95.666 76.6576 77.2842 65.4144 65.9437C76.6576 77.2779 94.8919 77.2779 106.141 65.9437C94.8982 54.6096 76.6639 54.6096 65.4144 65.9437Z" fill="white"/>
<path d="M83.5486 80.4676C80.8035 80.2407 79.5841 81.4573 79.8092 84.2373C79.7717 91.6001 86.1187 97.2671 93.3349 96.7187C95.4484 96.662 96.1363 94.8213 95.9299 92.9491C95.9299 86.0527 90.3834 80.4676 83.5486 80.4676Z" fill="white"/>
</g>
<defs>
<clipPath id="clip0_2181_1092">
<rect width="271" height="107" fill="white"/>
</clipPath>
</defs>
</svg>
