<svg width="307" height="304" viewBox="0 0 307 304" fill="none" xmlns="http://www.w3.org/2000/svg">
<path d="M117.797 117.83C150.33 85.2887 150.33 32.5415 117.797 0C85.2648 32.5415 85.2648 85.2887 117.797 117.83C85.2648 85.2887 32.5323 85.2887 0 117.83C32.5323 150.372 85.2648 150.372 117.797 117.83Z" fill="#26AA26"/>
<path d="M33.5931 72.5915H46.5897H72.5829V34.0338C72.5829 26.8749 66.988 20.7421 59.8311 20.6022C52.546 20.4739 46.5897 26.3386 46.5897 33.6024V46.6027H33.5931C26.4129 46.6027 20.5964 52.4207 20.5964 59.6029C20.5964 66.7852 26.4129 72.6032 33.5931 72.6032V72.5915Z" fill="#26AA26"/>
<path d="M185.555 117.83C218.087 150.372 270.819 150.372 303.352 117.83C270.819 85.2887 218.087 85.2887 185.555 117.83C218.087 85.2887 218.087 32.5415 185.555 0C153.022 32.5415 153.022 85.2887 185.555 117.83Z" fill="#7031BA"/>
<path d="M239.278 51.0916H252.274V64.0919C252.274 71.2741 258.091 77.0921 265.271 77.0921C272.451 77.0921 278.268 71.2741 278.268 64.0919V51.0916V36.8088C278.268 30.3378 273.022 25.0911 266.553 25.0911H252.274H239.278C232.098 25.0911 226.281 30.9091 226.281 38.0913C226.281 45.2735 232.098 51.0916 239.278 51.0916Z" fill="#7031BA"/>
<path d="M117.797 185.921C85.2648 153.38 32.5323 153.38 0 185.921C32.5323 218.463 85.2648 218.463 117.797 185.921C85.2648 218.463 85.2648 271.21 117.797 303.751C150.33 271.21 150.33 218.463 117.797 185.921Z" fill="#FFA233"/>
<path d="M61.5095 233.76H32.9753C28.2952 233.76 24.5012 237.555 24.5012 242.236V270.778C24.5012 275.46 28.2952 279.255 32.9753 279.255H61.5095C66.1896 279.255 69.9836 275.46 69.9836 270.778V242.236C69.9836 237.555 66.1896 233.76 61.5095 233.76Z" fill="#FFA233"/>
<path d="M183.013 154.278C184.447 136.031 169.341 120.92 151.099 122.354C136.75 123.485 125.117 135.121 123.987 149.474C122.553 167.721 137.659 182.832 155.901 181.397C170.25 180.266 181.883 168.63 183.013 154.278Z" fill="#33A1DC"/>
<path d="M189.203 185.921C156.671 218.463 156.671 271.21 189.203 303.751C221.735 271.21 221.735 218.463 189.203 185.921C221.735 218.463 274.468 218.463 307 185.921C274.468 153.38 221.735 153.38 189.203 185.921Z" fill="#EE0C9D"/>
<path d="M241.667 227.604C233.717 226.963 230.209 230.449 230.85 238.424C230.745 259.551 249.092 275.816 269.968 274.253C276.088 274.078 278.057 268.808 277.475 263.433C277.475 243.647 261.436 227.604 241.655 227.604H241.667Z" fill="#EE0C9D"/>
</svg>
