<svg width="124" height="124" viewBox="0 0 124 124" fill="none" xmlns="http://www.w3.org/2000/svg">
<g clip-path="url(#clip0_131_2789)">
<path d="M47.33 47.33C60.4 34.26 60.4 13.07 47.33 0C34.26 13.07 34.26 34.26 47.33 47.33C34.26 34.26 13.07 34.26 0 47.33C13.07 60.4 34.26 60.4 47.33 47.33Z" fill="white"/>
<path d="M13.4998 29.1601H18.7198H29.1598V18.7201V13.6701C29.1598 10.7901 26.9098 8.33008 24.0398 8.28008C21.1098 8.23008 18.7198 10.5801 18.7198 13.5001V18.7201H13.4998C10.6198 18.7201 8.27979 21.0601 8.27979 23.9401C8.27979 26.8201 10.6198 29.1601 13.4998 29.1601Z" fill="white"/>
<path d="M76.03 47.33C89.1 60.4 110.29 60.4 123.36 47.33C110.29 34.26 89.1 34.26 76.03 47.33C89.1 34.26 89.1 13.07 76.03 0C62.96 13.07 62.96 34.26 76.03 47.33Z" fill="white"/>
<path d="M96.8799 21.2601H102.1V26.4801C102.1 29.3601 104.44 31.7001 107.32 31.7001C110.2 31.7001 112.54 29.3601 112.54 26.4801V21.2601V15.5201C112.54 12.9201 110.43 10.8101 107.83 10.8101H102.09H96.8699C93.9899 10.8101 91.6499 13.1501 91.6499 16.0301C91.6499 18.9101 93.9899 21.2501 96.8699 21.2501L96.8799 21.2601Z" fill="white"/>
<path d="M47.33 76.03C34.26 62.96 13.07 62.96 0 76.03C13.07 89.1 34.26 89.1 47.33 76.03C34.26 89.1 34.26 110.29 47.33 123.36C60.4 110.29 60.4 89.1 47.33 76.03Z" fill="white"/>
<path d="M25.3898 94.5698H13.9098C12.032 94.5698 10.5098 96.0921 10.5098 97.9698V109.45C10.5098 111.328 12.032 112.85 13.9098 112.85H25.3898C27.2675 112.85 28.7898 111.328 28.7898 109.45V97.9698C28.7898 96.0921 27.2675 94.5698 25.3898 94.5698Z" fill="white"/>
<path d="M73.9498 62.68C74.5498 55.1 68.2698 48.82 60.6798 49.41C54.7098 49.88 49.8798 54.71 49.4098 60.68C48.8098 68.26 55.0898 74.54 62.6798 73.95C68.6498 73.48 73.4798 68.65 73.9498 62.68Z" fill="white"/>
<path d="M76.03 76.03C62.96 89.1 62.96 110.29 76.03 123.36C89.1 110.29 89.1 89.1 76.03 76.03C89.1 89.1 110.29 89.1 123.36 76.03C110.29 62.96 89.1 62.96 76.03 76.03Z" fill="white"/>
<path d="M97.1101 92.7702C93.9201 92.5102 92.5001 93.9102 92.7701 97.1102C92.7301 105.6 100.1 112.13 108.49 111.5C110.95 111.43 111.74 109.31 111.51 107.16C111.51 99.2102 105.07 92.7702 97.1201 92.7702H97.1101Z" fill="white"/>
</g>
<defs>
<clipPath id="clip0_131_2789">
<rect width="123.36" height="123.36" fill="white"/>
</clipPath>
</defs>
</svg>
