<svg width="307" height="443" viewBox="0 0 307 443" fill="none" xmlns="http://www.w3.org/2000/svg">
<g clip-path="url(#clip0_157_3948)">
<path d="M54.2593 408.418C51.9514 406.588 49.2588 405.072 46.1816 403.848L33.8261 398.857C31.4016 397.866 29.5366 396.77 28.2428 395.546C26.9373 394.334 26.2962 392.818 26.2962 390.999C26.2962 388.889 27.2054 387.046 29.0121 385.472C30.8188 383.887 33.4531 383.106 36.9033 383.106C39.5726 383.106 42.5565 383.572 45.8785 384.516C49.1889 385.449 52.1845 386.545 54.8538 387.804C56.1593 386.685 57.22 385.251 58.0592 383.514C58.8985 381.765 59.3647 379.992 59.4696 378.185C56.8004 376.868 53.4784 375.655 49.5036 374.559C45.5172 373.452 41.2744 372.904 36.7634 372.904C32.2525 372.904 28.0912 373.755 24.4895 375.445C20.8877 377.148 18.0553 379.468 16.0038 382.429C13.9523 385.391 12.9266 388.784 12.9266 392.596C12.9266 397.004 14.2437 400.606 16.878 403.381C19.5123 406.168 22.9625 408.43 27.2287 410.167L39.6308 415.157C42.5682 416.347 44.6663 417.734 45.9368 419.331C47.1957 420.929 47.8368 422.643 47.8368 424.497C47.8368 426.77 46.8926 428.706 44.9927 430.303C43.0927 431.9 40.3069 432.693 36.6119 432.693C32.9169 432.693 29.4667 432.04 25.8183 430.746C22.1699 429.452 18.8712 427.913 15.8989 426.129C14.64 427.178 13.4861 428.589 12.437 430.35C11.388 432.11 10.7818 433.894 10.6187 435.701C14.2088 438.01 18.2418 439.794 22.7177 441.088C27.1937 442.37 31.5531 443.012 35.7843 443.012C41.5658 443.012 46.3564 442.126 50.1913 440.342C54.0262 438.558 56.8703 436.144 58.7586 433.09C60.6352 430.023 61.5794 426.572 61.5794 422.724C61.5794 419.798 60.9383 417.139 59.6561 414.749C58.374 412.359 56.5789 410.26 54.271 408.43L54.2593 408.418Z" fill="black"/>
<path d="M87.631 431.352C87.293 431.375 86.9317 431.387 86.582 431.41C86.582 430.279 86.5936 429.288 86.6286 428.414C86.6636 427.54 86.6752 426.595 86.6752 425.581V412.779C87.8059 412.79 88.9365 412.802 90.0322 412.814C91.3843 412.825 92.4683 412.837 93.2843 412.837H111.118C111.363 412.009 111.538 411.123 111.654 410.167C111.771 409.211 111.829 408.371 111.829 407.649C111.829 406.926 111.771 406.121 111.654 405.153C111.538 404.186 111.351 403.3 111.118 402.518H93.2843C92.4683 402.518 91.3843 402.518 90.0322 402.542C88.9365 402.553 87.8059 402.565 86.6752 402.577V391.547C86.6752 390.194 86.6636 389.052 86.6286 388.096C86.5936 387.186 86.582 386.067 86.582 384.773C87.7592 384.784 88.9132 384.796 90.0438 384.808C91.396 384.819 92.48 384.831 93.2959 384.831H116.259C116.632 383.875 116.911 382.872 117.074 381.823C117.238 380.774 117.331 379.899 117.331 379.211C117.331 378.523 117.308 377.707 117.249 376.868C117.203 376.028 117.074 375.154 116.865 374.221H74.4712L73.7485 374.862V434.255C73.7485 436.587 74.4129 438.441 75.7417 439.782C77.0705 441.134 78.9006 441.811 81.2318 441.811H110.454C113.869 441.811 116.165 440.96 117.354 439.246C118.543 437.532 119.126 434.85 119.126 431.201H93.7039C91.4193 431.201 89.3911 431.247 87.631 431.352Z" fill="black"/>
<path d="M175.775 374.617C174.889 374.291 173.875 374.058 172.756 373.93C171.625 373.801 170.494 373.731 169.375 373.731C168.49 373.731 167.592 373.766 166.683 373.825C165.774 373.895 164.865 374.023 163.944 374.221L155.586 394.462C155.108 395.651 154.572 397.004 154.001 398.531C153.418 400.058 152.847 401.644 152.288 403.276C151.728 404.909 151.238 406.448 150.831 407.893H150.318C149.665 405.62 148.954 403.346 148.185 401.049C147.415 398.764 146.634 396.677 145.853 394.8L139.034 378.71C138.277 376.868 137.391 375.539 136.365 374.711C135.339 373.883 133.906 373.475 132.052 373.475C130.724 373.475 129.36 373.661 127.973 374.046C126.586 374.431 125.245 374.979 123.951 375.702L143.534 420.089V441.671C144.56 441.869 145.702 441.997 146.972 442.044C148.231 442.091 149.292 442.114 150.154 442.114C151.11 442.114 152.183 442.091 153.36 442.044C154.537 441.997 155.645 441.869 156.67 441.671V420.532L176.299 375.364L175.786 374.629L175.775 374.617Z" fill="black"/>
<path d="M234.93 374.571C234.079 374.279 233.088 374.069 231.957 373.953C230.827 373.836 229.824 373.778 228.938 373.778C227.983 373.778 227.027 373.801 226.071 373.848C225.115 373.895 224.171 374.023 223.25 374.221L208.074 430.758C207.806 430.758 207.596 430.688 207.456 430.559C207.316 430.431 207.2 430.128 207.095 429.673C206.722 427.866 206.291 425.942 205.813 423.925C205.335 421.908 204.845 419.891 204.356 417.897C203.866 415.904 203.353 414.038 202.84 412.289L193.306 379.654C192.688 377.451 191.825 375.865 190.718 374.909C189.611 373.953 188.107 373.475 186.23 373.475C184.797 373.475 183.41 373.661 182.081 374.023C180.752 374.384 179.481 374.816 178.292 375.305L196.383 436.284C197.071 438.593 198.108 440.143 199.507 440.948C200.905 441.752 202.852 442.161 205.346 442.161C207.025 442.161 208.75 442.126 210.545 442.067C212.34 441.997 214.019 441.881 215.592 441.717L235.431 375.305L234.918 374.571H234.93Z" fill="black"/>
<path d="M271.227 374.279C270.236 374.116 269.001 373.988 267.532 373.906C266.064 373.824 264.793 373.778 263.744 373.778C262.695 373.778 261.424 373.824 259.956 373.906C258.487 373.988 257.217 374.093 256.167 374.233L233.251 440.785L233.659 441.426C234.475 441.694 235.478 441.881 236.655 442.02C237.832 442.149 238.951 442.219 240.012 442.219C241.073 442.219 242.029 442.195 242.984 442.149C243.94 442.102 244.814 441.974 245.595 441.776L250.619 426.187C250.876 426.187 251.155 426.187 251.47 426.199C252.309 426.21 253.149 426.234 253.988 426.245C254.827 426.257 255.445 426.269 255.864 426.269H270.12C270.528 426.269 271.157 426.269 271.997 426.245C272.836 426.234 273.675 426.21 274.538 426.199C274.887 426.199 275.202 426.187 275.482 426.187L278.489 435.713C279.305 438.383 280.296 440.167 281.461 441.064C282.627 441.974 284.236 442.417 286.275 442.417C287.604 442.417 288.98 442.289 290.378 442.02C291.777 441.752 292.943 441.379 293.864 440.89L271.262 374.291L271.227 374.279ZM271.822 416.067C271.052 416.055 270.283 416.032 269.514 416.02C268.744 416.008 268.15 415.997 267.742 415.997H258.615C258.242 415.997 257.671 415.997 256.925 416.02C256.167 416.032 255.41 416.055 254.641 416.067C254.349 416.067 254.093 416.067 253.86 416.078L258.301 402.262C258.953 400.093 259.723 397.47 260.608 394.415C261.494 391.36 262.194 388.62 262.707 386.218H263.266C264.012 389.087 264.898 392.223 265.9 395.651C266.903 399.079 267.859 402.204 268.744 405.037L272.23 416.078C272.09 416.078 271.95 416.078 271.787 416.078L271.822 416.067Z" fill="black"/>
<path d="M23.2306 344.116H38.8149V337.109H23.2306V327.852H39.1063V320.739H15.0247V360.253H23.2306V344.116Z" fill="black"/>
<path d="M63.5492 346.985C63.5492 349.503 62.9081 351.357 61.6493 352.523C60.3788 353.689 58.8984 354.272 57.2199 354.272C55.2617 354.272 53.7581 353.689 52.709 352.523C51.6483 351.357 51.1238 349.515 51.1238 346.985V330.895H43.2092V348.85C43.2092 351.299 43.7221 353.432 44.7362 355.263C45.7503 357.093 47.1374 358.492 48.8974 359.472C50.6575 360.451 52.6274 360.941 54.8188 360.941C57.1966 360.941 59.1082 360.521 60.5303 359.67C61.9523 358.819 63.0364 357.548 63.7824 355.857V360.265H71.4638V330.906H63.5492V346.996V346.985Z" fill="black"/>
<path d="M84.0641 344.163C84.0641 341.598 84.6936 339.756 85.9641 338.601C87.2346 337.459 88.7033 336.876 90.3934 336.876C92.3517 336.876 93.9252 337.447 95.1375 338.601C96.3497 339.756 96.9558 341.598 96.9558 344.163V360.253H104.87V342.297C104.87 339.814 104.358 337.669 103.343 335.861C102.329 334.054 100.942 332.667 99.1822 331.687C97.4221 330.708 95.4522 330.218 93.2608 330.218C88.645 330.218 85.5445 331.874 83.9359 335.185V330.894H76.1379V360.253H84.0525V344.163H84.0641Z" fill="black"/>
<path d="M133.008 355.461V360.265H140.69V319.049H132.775V335.418C131.959 333.879 130.805 332.632 129.313 331.687C127.833 330.743 125.782 330.277 123.159 330.277C121.049 330.277 119.091 330.685 117.273 331.489C115.454 332.294 113.857 333.413 112.493 334.824C111.13 336.235 110.046 337.879 109.265 339.732C108.484 341.598 108.099 343.58 108.099 345.69C108.099 348.512 108.775 351.077 110.127 353.397C111.479 355.717 113.286 357.56 115.582 358.935C117.879 360.311 120.396 360.999 123.171 360.999C125.945 360.999 128.031 360.486 129.535 359.472C131.038 358.457 132.204 357.117 133.02 355.461H133.008ZM124.453 354.108C122.774 354.108 121.294 353.712 120.023 352.919C118.753 352.126 117.762 351.089 117.063 349.783C116.363 348.489 116.002 347.101 116.002 345.632C116.002 344.093 116.352 342.682 117.063 341.4C117.762 340.117 118.753 339.091 120.023 338.322C121.294 337.552 122.763 337.167 124.453 337.167C126.143 337.167 127.728 337.564 128.999 338.357C130.269 339.149 131.26 340.187 131.959 341.458C132.659 342.741 133.02 344.151 133.02 345.69C133.02 347.229 132.67 348.594 131.959 349.864C131.26 351.147 130.269 352.173 128.999 352.943C127.728 353.712 126.213 354.097 124.453 354.097V354.108Z" fill="black"/>
<path d="M168.944 335.535C168.117 333.949 166.974 332.679 165.482 331.722C163.99 330.766 161.927 330.288 159.27 330.288C157.16 330.288 155.19 330.696 153.383 331.501C151.565 332.305 149.98 333.425 148.604 334.835C147.24 336.246 146.156 337.89 145.376 339.744C144.595 341.61 144.198 343.592 144.198 345.702C144.198 348.524 144.874 351.089 146.215 353.409C147.555 355.729 149.385 357.571 151.67 358.947C153.954 360.323 156.484 361.011 159.258 361.011C162.032 361.011 164.107 360.498 165.622 359.484C167.126 358.469 168.292 357.128 169.107 355.473V360.276H176.789V330.918H168.933V335.547L168.944 335.535ZM168.058 349.865C167.359 351.147 166.368 352.173 165.098 352.943C163.827 353.712 162.312 354.097 160.552 354.097C158.792 354.097 157.393 353.7 156.123 352.908C154.852 352.115 153.861 351.077 153.162 349.771C152.462 348.465 152.113 347.09 152.113 345.62C152.113 344.081 152.462 342.671 153.162 341.388C153.861 340.106 154.852 339.08 156.123 338.31C157.393 337.54 158.873 337.156 160.552 337.156C162.23 337.156 163.827 337.552 165.098 338.345C166.368 339.138 167.359 340.176 168.058 341.446C168.758 342.729 169.119 344.14 169.119 345.679C169.119 347.218 168.769 348.582 168.058 349.853V349.865Z" fill="black"/>
<path d="M184.878 356.499C186.323 357.91 187.99 359.006 189.89 359.798C191.779 360.591 193.83 360.988 196.01 360.988C199.017 360.988 201.581 360.486 203.714 359.495C205.848 358.504 207.631 357.117 209.076 355.344L203.33 350.541C202.549 351.555 201.628 352.395 200.579 353.059C199.53 353.724 198.236 354.05 196.709 354.05C195.031 354.05 193.55 353.666 192.28 352.896C191.009 352.126 190.018 351.089 189.296 349.795C188.573 348.5 188.212 347.09 188.212 345.586C188.212 344.081 188.55 342.636 189.238 341.353C189.925 340.071 190.893 339.045 192.14 338.275C193.387 337.506 194.856 337.121 196.534 337.121C197.898 337.121 199.145 337.424 200.253 338.03C201.36 338.637 202.269 339.441 202.98 340.455L209.076 335.652C207.782 333.926 206.046 332.562 203.854 331.583C201.663 330.603 199.18 330.137 196.406 330.172C193.317 330.172 190.555 330.871 188.107 332.259C185.671 333.658 183.747 335.5 182.36 337.82C180.973 340.141 180.274 342.729 180.274 345.586C180.274 347.731 180.67 349.736 181.475 351.602C182.279 353.467 183.398 355.1 184.843 356.51L184.878 356.499Z" fill="black"/>
<path d="M216.117 328.469C217.48 328.469 218.611 328.038 219.52 327.175C220.418 326.312 220.872 325.24 220.872 323.957C220.872 322.756 220.418 321.707 219.52 320.821C218.623 319.935 217.492 319.492 216.117 319.492C214.741 319.492 213.669 319.935 212.748 320.821C211.827 321.707 211.373 322.745 211.373 323.957C211.373 325.17 211.827 326.266 212.748 327.152C213.669 328.038 214.788 328.481 216.117 328.481V328.469Z" fill="black"/>
<path d="M220.103 330.906H212.188V360.265H220.103V330.906Z" fill="black"/>
<path d="M247.659 318.477H239.569L236.993 328.306H242.495L247.659 318.477Z" fill="black"/>
<path d="M231.48 358.901C233.939 360.288 236.737 360.988 239.861 360.988C242.984 360.988 245.829 360.288 248.276 358.901C250.712 357.513 252.636 355.659 254.023 353.339C255.41 351.019 256.109 348.454 256.109 345.632C256.109 342.81 255.41 340.234 254.023 337.902C252.636 335.57 250.724 333.704 248.276 332.317C245.829 330.93 243.031 330.23 239.861 330.23C236.69 330.23 233.939 330.93 231.48 332.317C229.02 333.704 227.097 335.57 225.71 337.902C224.323 340.234 223.624 342.81 223.624 345.632C223.624 348.454 224.311 351.019 225.71 353.339C227.097 355.648 229.02 357.513 231.48 358.901ZM232.564 341.4C233.252 340.117 234.219 339.091 235.466 338.322C236.713 337.552 238.182 337.167 239.861 337.167C241.539 337.167 243.008 337.552 244.255 338.322C245.502 339.091 246.47 340.117 247.157 341.4C247.845 342.682 248.183 344.093 248.183 345.632C248.183 347.171 247.845 348.535 247.157 349.806C246.47 351.089 245.502 352.115 244.255 352.884C243.008 353.654 241.539 354.039 239.861 354.039C238.182 354.039 236.713 353.654 235.466 352.884C234.219 352.115 233.252 351.089 232.564 349.806C231.876 348.524 231.538 347.136 231.538 345.632C231.538 344.128 231.876 342.682 232.564 341.4Z" fill="black"/>
<path d="M267.52 344.163C267.52 341.598 268.15 339.756 269.42 338.601C270.691 337.459 272.171 336.876 273.85 336.876C275.808 336.876 277.382 337.447 278.594 338.601C279.806 339.756 280.412 341.598 280.412 344.163V360.253H288.327V342.297C288.327 339.814 287.814 337.669 286.8 335.861C285.786 334.054 284.399 332.667 282.638 331.687C280.878 330.708 278.908 330.218 276.717 330.218C272.101 330.218 269.001 331.874 267.392 335.185V330.894H259.594V360.253H267.509V344.163H267.52Z" fill="black"/>
<path d="M117.797 117.83C150.33 85.2887 150.33 32.5415 117.797 0C85.2648 32.5415 85.2648 85.2887 117.797 117.83C85.2648 85.2887 32.5323 85.2887 0 117.83C32.5323 150.372 85.2648 150.372 117.797 117.83Z" fill="#26AA26"/>
<path d="M33.5931 72.5915H46.5897H72.5829V34.0338C72.5829 26.8749 66.988 20.7421 59.8311 20.6022C52.546 20.4739 46.5897 26.3386 46.5897 33.6024V46.6027H33.5931C26.4129 46.6027 20.5964 52.4207 20.5964 59.6029C20.5964 66.7852 26.4129 72.6032 33.5931 72.6032V72.5915Z" fill="#26AA26"/>
<path d="M185.555 117.83C218.087 150.372 270.819 150.372 303.352 117.83C270.819 85.2887 218.087 85.2887 185.555 117.83C218.087 85.2887 218.087 32.5415 185.555 0C153.022 32.5415 153.022 85.2887 185.555 117.83Z" fill="#7031BA"/>
<path d="M239.278 51.0916H252.274V64.0919C252.274 71.2741 258.091 77.0921 265.271 77.0921C272.451 77.0921 278.268 71.2741 278.268 64.0919V51.0916V36.8088C278.268 30.3378 273.022 25.0911 266.553 25.0911H252.274H239.278C232.098 25.0911 226.281 30.9091 226.281 38.0913C226.281 45.2735 232.098 51.0916 239.278 51.0916Z" fill="#7031BA"/>
<path d="M117.797 185.921C85.2648 153.38 32.5323 153.38 0 185.921C32.5323 218.463 85.2648 218.463 117.797 185.921C85.2648 218.463 85.2648 271.21 117.797 303.751C150.33 271.21 150.33 218.463 117.797 185.921Z" fill="#FFA233"/>
<path d="M61.5095 233.76H32.9753C28.2952 233.76 24.5012 237.555 24.5012 242.236V270.778C24.5012 275.46 28.2952 279.255 32.9753 279.255H61.5095C66.1896 279.255 69.9836 275.46 69.9836 270.778V242.236C69.9836 237.555 66.1896 233.76 61.5095 233.76Z" fill="#FFA233"/>
<path d="M183.013 154.278C184.447 136.031 169.341 120.92 151.099 122.354C136.75 123.485 125.117 135.121 123.987 149.474C122.553 167.721 137.659 182.832 155.901 181.397C170.25 180.266 181.883 168.63 183.013 154.278Z" fill="#33A1DC"/>
<path d="M189.203 185.921C156.671 218.463 156.671 271.21 189.203 303.751C221.735 271.21 221.735 218.463 189.203 185.921C221.735 218.463 274.468 218.463 307 185.921C274.468 153.38 221.735 153.38 189.203 185.921Z" fill="#EE0C9D"/>
<path d="M241.667 227.604C233.717 226.963 230.209 230.449 230.85 238.424C230.745 259.551 249.092 275.816 269.968 274.253C276.088 274.078 278.057 268.808 277.475 263.433C277.475 243.647 261.436 227.604 241.655 227.604H241.667Z" fill="#EE0C9D"/>
</g>
<defs>
<clipPath id="clip0_157_3948">
<rect width="307" height="443" fill="white"/>
</clipPath>
</defs>
</svg>
