<svg width="135" height="101" viewBox="0 0 135 101" fill="none" xmlns="http://www.w3.org/2000/svg">
<g clip-path="url(#clip0_131_2774)">
<path d="M67.43 100.13C104.67 100.13 134.86 69.9402 134.86 32.7002C97.62 32.7002 67.43 62.8902 67.43 100.13C67.43 62.8902 37.24 32.7002 0 32.7002C0 69.9402 30.19 100.13 67.43 100.13Z" fill="white"/>
<path d="M59.9994 33.2699L67.4394 25.8299L74.8794 33.2699C78.9894 37.3799 85.6494 37.3799 89.7594 33.2699C93.8694 29.1599 93.8694 22.4999 89.7594 18.3899L82.3194 10.9499L74.1494 2.77988C70.4494 -0.920117 64.4394 -0.920117 60.7394 2.77988L52.5694 10.9499L45.1294 18.3899C41.0194 22.4999 41.0194 29.1599 45.1294 33.2699C49.2394 37.3799 55.8994 37.3799 60.0094 33.2699H59.9994Z" fill="white"/>
</g>
<defs>
<clipPath id="clip0_131_2774">
<rect width="134.87" height="100.13" fill="white"/>
</clipPath>
</defs>
</svg>
