<svg width="135" height="103" viewBox="0 0 135 103" fill="none" xmlns="http://www.w3.org/2000/svg">
<g clip-path="url(#clip0_131_2673)">
<path d="M67.43 102.07C104.67 102.07 134.86 71.8801 134.86 34.6401C97.62 34.6401 67.43 64.8301 67.43 102.07C67.43 64.8301 37.24 34.6401 0 34.6401C0 71.8801 30.19 102.07 67.43 102.07Z" fill="white"/>
<path d="M62.5843 2.01967L46.2502 18.3538C43.5712 21.0328 43.5712 25.3763 46.2502 28.0553L62.5843 44.3895C65.2633 47.0685 69.6068 47.0685 72.2858 44.3895L88.62 28.0553C91.299 25.3763 91.299 21.0328 88.62 18.3538L72.2858 2.01967C69.6068 -0.659323 65.2633 -0.659328 62.5843 2.01967Z" fill="white"/>
</g>
<defs>
<clipPath id="clip0_131_2673">
<rect width="134.87" height="102.07" fill="white"/>
</clipPath>
</defs>
</svg>
