<svg width="135" height="93" viewBox="0 0 135 93" fill="none" xmlns="http://www.w3.org/2000/svg">
<path d="M67.43 92.0501C104.67 92.0501 134.86 61.8601 134.86 24.6201C97.62 24.6201 67.43 54.8101 67.43 92.0501C67.43 54.8101 37.24 24.6201 0 24.6201C0 61.8601 30.19 92.0501 67.43 92.0501Z" fill="white"/>
<path d="M45.1198 17.96L52.5598 25.4L67.4398 40.28L82.3198 25.4L89.5098 18.21C93.6098 14.11 93.9198 7.40001 89.8898 3.23001C85.7898 -1.01999 79.0298 -1.06999 74.8698 3.09001L67.4298 10.53L59.9898 3.09001C55.8798 -1.01999 49.2198 -1.01999 45.1098 3.09001C40.9998 7.20001 40.9998 13.86 45.1098 17.97L45.1198 17.96Z" fill="white"/>
</svg>
